<svg width="1626" height="245" viewBox="0 0 1626 245" fill="none" xmlns="http://www.w3.org/2000/svg">
<path d="M55.4305 182C38.6305 182 25.3638 177.133 15.6305 167.4C5.89714 157.8 0.963802 144.333 0.830469 127C0.830469 122.2 1.23047 117.067 2.03047 111.6C2.9638 106.133 4.49714 100.867 6.63047 95.8C8.7638 90.7333 11.6971 86.4 15.4305 82.8C11.0305 79.6 7.43047 75.7333 4.63047 71.2C1.83047 66.6667 0.430469 61.6 0.430469 56C0.430469 52.8 0.897136 49.7333 1.83047 46.8C3.83047 39.4667 7.5638 33.7333 13.0305 29.6C18.6305 25.4667 25.3638 22.5333 33.2305 20.8C41.0971 18.9333 49.6305 18 58.8305 18C61.4971 18 64.1638 18.0667 66.8305 18.2C69.6305 18.3333 72.3638 18.5333 75.0305 18.8C90.8971 20.4 106.497 23.2667 121.83 27.4C137.164 31.4 152.964 35.5333 169.23 39.8C172.297 40.6 175.364 41.4667 178.43 42.4C181.63 43.2 184.697 43.9333 187.63 44.6L201.23 12.2C201.63 12.0667 201.964 12 202.23 12C202.63 11.8667 203.03 11.8 203.43 11.8C205.964 11.8 207.83 13 209.03 15.4C210.23 17.6667 210.83 19.8 210.83 21.8C210.83 22.8667 210.63 23.7333 210.23 24.4L199.03 47C205.03 48.3333 211.097 49.4 217.23 50.2C223.364 50.8667 229.697 51.2 236.23 51.2C237.297 51.2 238.364 51.2 239.43 51.2C240.497 51.0667 241.564 51 242.63 51C245.164 50.8667 247.964 50.4 251.03 49.6C254.097 48.6667 256.764 47.3333 259.03 45.6C261.297 43.8667 262.43 41.7333 262.43 39.2C262.43 38.2667 262.23 37.2667 261.83 36.2C261.564 35.1333 260.964 34 260.03 32.8C259.23 31.7333 258.164 30.6667 256.83 29.6C255.497 28.5333 253.83 27.2 251.83 25.6C251.697 25.4667 251.63 25.2667 251.63 25C251.63 24.4667 252.03 24.2 252.83 24.2C253.364 24.2 254.03 24.4 254.83 24.8C256.43 25.6 258.297 26.8667 260.43 28.6C262.697 30.3333 264.63 32.3333 266.23 34.6C267.964 36.8667 268.83 39.3333 268.83 42C268.83 45.3333 267.497 48.0667 264.83 50.2C262.164 52.2 259.03 53.6667 255.43 54.6C251.964 55.5333 248.764 56.0667 245.83 56.2C244.897 56.2 243.897 56.2667 242.83 56.4C241.897 56.4 240.897 56.4 239.83 56.4C232.764 56.4 225.63 55.8667 218.43 54.8C211.364 53.7333 204.297 52.4 197.23 50.8C191.23 62.6667 184.63 74.8 177.43 87.2C170.364 99.4667 162.564 111.267 154.03 122.6C145.63 133.8 136.43 143.867 126.43 152.8C116.43 161.867 105.497 169 93.6305 174.2C81.8971 179.4 69.1638 182 55.4305 182ZM59.2305 172.8C72.5638 172.8 84.6971 170.4 95.6305 165.6C106.564 160.933 116.43 154.467 125.23 146.2C134.164 138.067 142.23 128.667 149.43 118C156.764 107.333 163.43 96.0667 169.43 84.2C175.43 72.2 181.03 60.1333 186.23 48C182.897 47.2 179.564 46.4 176.23 45.6C172.897 44.8 169.63 43.9333 166.43 43C156.697 40.4667 146.43 37.8667 135.63 35.2C124.83 32.4 113.764 30.0667 102.43 28.2C91.0971 26.3333 79.6305 25.4 68.0305 25.4C63.8971 25.4 59.6971 25.6 55.4305 26C51.2971 26.2667 47.0971 26.7333 42.8305 27.4C36.4305 28.4667 30.3638 30.6 24.6305 33.8C19.0305 36.8667 14.4305 40.6 10.8305 45C7.3638 49.4 5.63047 54.0667 5.63047 59C5.63047 64.0667 7.7638 68.9333 12.0305 73.6C12.6971 74.5333 13.6971 75.4667 15.0305 76.4C16.3638 77.3333 17.8305 78.3333 19.4305 79.4C20.7638 78.4667 22.0971 77.7333 23.4305 77.2C24.2305 76.9333 24.8305 76.8 25.2305 76.8C25.8971 76.8 26.3638 77 26.6305 77.4C26.8971 77.6667 26.6971 78 26.0305 78.4C24.5638 79.2 23.2971 80.0667 22.2305 81C25.4305 82.8667 28.8305 84.6667 32.4305 86.4C36.0305 88 39.0971 89.1333 41.6305 89.8C43.3638 89.9333 44.2305 90.5333 44.2305 91.6C44.2305 92.4 43.5638 92.6 42.2305 92.2C33.9638 91.9333 26.0971 89.5333 18.6305 85C14.6305 89.9333 11.6971 96.0667 9.83047 103.4C7.9638 110.733 7.03047 117.6 7.03047 124C7.03047 140.933 11.6305 153.267 20.8305 161C30.1638 168.867 42.9638 172.8 59.2305 172.8ZM251.359 148.2C247.359 148.2 243.825 147.2 240.759 145.2C237.825 143.2 236.359 139.467 236.359 134C236.492 131.2 236.959 128.333 237.759 125.4C238.692 122.333 239.692 119.467 240.759 116.8C239.025 118.8 236.425 121.467 232.959 124.8C229.492 128.133 225.559 131.533 221.159 135C216.892 138.333 212.492 141.2 207.959 143.6C203.425 146 199.159 147.2 195.159 147.2C191.159 147.2 187.892 145.733 185.359 142.8C183.625 140.933 182.759 138.467 182.759 135.4C182.759 131.533 184.092 127.267 186.759 122.6C189.559 117.8 193.292 113.067 197.959 108.4C202.625 103.6 207.959 99.2 213.959 95.2C220.092 91.2 226.492 88.0667 233.159 85.8C240.359 83.2667 246.625 82 251.959 82C261.025 82 265.559 85.8667 265.559 93.6C265.559 94.2667 265.492 95 265.359 95.8C265.359 96.4667 265.292 97.2 265.159 98C264.892 99.6 264.359 100.867 263.559 101.8C262.892 102.733 262.359 103.2 261.959 103.2C261.292 103.2 261.159 102.467 261.559 101C261.825 100.333 261.959 99.6667 261.959 99C261.959 98.2 261.959 97.5333 261.959 97C261.959 94.8667 261.425 93.2 260.359 92C259.292 90.6667 257.425 90 254.759 90C252.359 90 249.359 90.5333 245.759 91.6C242.292 92.5333 238.559 93.8 234.559 95.4C230.559 96.8667 226.692 98.5333 222.959 100.4C219.359 102.267 216.359 104.133 213.959 106C209.825 108.933 205.959 112.2 202.359 115.8C198.759 119.4 195.759 122.933 193.359 126.4C190.959 129.733 189.559 132.8 189.159 135.6C189.025 136 188.959 136.4 188.959 136.8C188.959 137.2 188.959 137.533 188.959 137.8C188.959 140.2 189.425 141.867 190.359 142.8C191.425 143.733 192.759 144.2 194.359 144.2C196.759 144.2 199.492 143.467 202.559 142C205.759 140.533 208.692 138.867 211.359 137C214.025 135.133 215.892 133.733 216.959 132.8C221.225 129.2 226.025 125.267 231.359 121C236.692 116.6 241.425 112.533 245.559 108.8C246.225 108.4 246.959 108.2 247.759 108.2C249.625 108.2 251.159 108.667 252.359 109.6C252.759 110 252.959 110.533 252.959 111.2C252.959 111.867 252.759 112.733 252.359 113.8C252.092 114.733 251.692 115.8 251.159 117C248.892 121.667 247.025 125.867 245.559 129.6C244.092 133.333 243.359 136.467 243.359 139C243.359 143 245.559 145 249.959 145C253.292 145 258.225 143.8 264.759 141.4C271.825 138.733 278.892 135.067 285.959 130.4C293.025 125.733 299.425 121 305.159 116.2C306.625 115 307.959 114 309.159 113.2C310.359 112.4 311.625 111.333 312.959 110C313.225 109.867 313.559 109.8 313.959 109.8C314.359 109.8 314.559 110 314.559 110.4C314.559 110.8 314.292 111.333 313.759 112C312.959 113.067 311.025 115.067 307.959 118C304.892 120.8 301.092 124 296.559 127.6C292.025 131.067 287.092 134.467 281.759 137.8C276.559 141 271.292 143.533 265.959 145.4C263.959 146.067 261.625 146.667 258.959 147.2C256.425 147.867 253.892 148.2 251.359 148.2ZM244.487 245C240.487 245 236.753 244.333 233.287 243C229.687 241.8 226.753 239.933 224.487 237.4C222.22 235 221.087 232.133 221.087 228.8C221.087 222.533 222.753 216.733 226.087 211.4C229.42 206.2 233.753 201.4 239.087 197C244.42 192.6 250.287 188.667 256.687 185.2C262.953 181.733 269.153 178.6 275.287 175.8C281.42 173 286.82 170.533 291.487 168.4C294.553 166.933 298.42 165.333 303.087 163.6C307.887 161.867 313.02 160.067 318.487 158.2C323.953 156.333 329.353 154.533 334.687 152.8C340.02 151.2 344.82 149.8 349.087 148.6C351.22 144.733 353.087 140.133 354.687 134.8C356.287 129.333 357.087 124.533 357.087 120.4C357.087 118.533 356.887 116.933 356.487 115.6C356.087 114.133 355.42 113.133 354.487 112.6L353.287 113.8C351.287 115.667 348.553 118.4 345.087 122C341.62 125.6 337.753 129.333 333.487 133.2C329.353 136.933 325.087 140.133 320.687 142.8C316.42 145.333 312.487 146.6 308.887 146.6C305.42 146.6 302.553 145.067 300.287 142C298.953 140.133 298.287 137.933 298.287 135.4C298.287 131.133 299.82 126.533 302.887 121.6C306.087 116.667 309.953 111.933 314.487 107.4C314.753 107 315.487 106.133 316.687 104.8C317.887 103.467 319.087 102.133 320.287 100.8C321.62 99.4667 322.553 98.6 323.087 98.2C322.553 97.8 322.82 96.8 323.887 95.2C324.953 93.6 326.353 92.1333 328.087 90.8C329.953 89.4667 331.553 89.2 332.887 90C334.087 90.6667 335.087 91.4 335.887 92.2C336.82 92.8667 337.287 93.6 337.287 94.4C337.287 95.2 336.687 96.2 335.487 97.4L331.287 101.4C328.753 103.933 325.887 106.8 322.687 110C319.62 113.2 316.687 116.467 313.887 119.8C311.087 123 308.753 126.067 306.887 129C305.02 131.8 303.953 134.133 303.687 136C303.553 136.533 303.487 137 303.487 137.4C303.487 137.8 303.487 138.2 303.487 138.6C303.487 142.467 304.953 144.4 307.887 144.4C310.02 144.4 312.487 143.6 315.287 142C318.22 140.267 320.953 138.4 323.487 136.4C326.153 134.4 328.02 132.933 329.087 132C333.087 128.533 336.953 124.933 340.687 121.2C344.553 117.467 348.353 113.933 352.087 110.6C351.953 109.8 352.22 109 352.887 108.2C353.687 107.267 355.153 106.667 357.287 106.4C360.22 106.133 362.487 107.133 364.087 109.4C365.687 111.533 366.487 114.733 366.487 119C366.487 122.333 365.953 126.133 364.887 130.4C363.82 134.667 362.087 139.333 359.687 144.4C369.553 140.133 378.753 135.6 387.287 130.8C395.82 126 403.887 120.133 411.487 113.2C412.553 112.267 413.887 111 415.487 109.4C417.087 107.667 418.553 106.2 419.887 105C421.353 103.667 422.287 103.067 422.687 103.2C423.353 103.333 423.22 104.2 422.287 105.8C421.353 107.267 418.953 110 415.087 114C407.753 121.467 399.487 127.933 390.287 133.4C381.087 138.733 370.087 144 357.287 149.2C350.62 162.267 342.82 174.533 333.887 186C325.087 197.6 315.62 207.8 305.487 216.6C295.353 225.533 285.087 232.467 274.687 237.4C264.287 242.467 254.22 245 244.487 245ZM240.887 240.6C246.62 240.6 253.353 239.2 261.087 236.4C268.687 233.6 276.42 229.733 284.287 224.8C292.287 219.867 299.553 214.133 306.087 207.6C309.153 204.533 312.753 200.533 316.887 195.6C321.02 190.8 325.153 185.667 329.287 180.2C333.42 174.733 337.087 169.6 340.287 164.8C343.62 160 345.953 156.2 347.287 153.4C337.553 155.667 327.22 158.8 316.287 162.8C305.487 166.8 294.82 171.333 284.287 176.4C273.887 181.6 264.42 187.067 255.887 192.8C247.22 198.667 240.22 204.533 234.887 210.4C229.553 216.4 226.62 222.133 226.087 227.6C225.82 232.133 227.087 235.4 229.887 237.4C232.553 239.533 236.22 240.6 240.887 240.6ZM411.393 149.6C406.593 149.6 403.126 148.333 400.993 145.8C398.993 143.267 397.993 140.4 397.993 137.2C397.993 136.133 398.06 135.133 398.193 134.2C398.326 133.133 398.593 132.133 398.993 131.2C399.926 128.267 401.66 124.733 404.193 120.6C406.86 116.467 409.793 112.6 412.993 109C416.326 105.267 419.393 102.8 422.193 101.6C420.46 99.8667 419.593 97.9333 419.593 95.8C419.593 93.8 420.46 91.9333 422.193 90.2C423.926 88.3333 426.593 86.8667 430.193 85.8C432.06 85.1333 434.06 84.7333 436.193 84.6C438.46 84.3333 440.793 84.2 443.193 84.2C446.26 84.2 449.26 84.4 452.193 84.8C456.326 85.4667 459.926 87.2667 462.993 90.2C466.06 93.1333 467.86 96.6667 468.393 100.8C468.66 102.533 468.66 104.333 468.393 106.2C470.66 106.333 472.926 106.4 475.193 106.4C477.46 106.267 479.593 106.2 481.593 106.2C485.593 106.2 489.726 105.933 493.993 105.4C498.393 104.733 502.393 103.933 505.993 103C509.726 102.067 512.526 101.133 514.393 100.2C515.326 99.6667 516.06 99.4 516.593 99.4C517.126 99.4 517.393 99.6 517.393 100C517.393 100.933 516.326 101.867 514.193 102.8C511.26 104.133 506.726 105.533 500.593 107C494.593 108.333 488.26 109.133 481.593 109.4C479.86 109.533 477.793 109.667 475.393 109.8C472.993 109.8 470.393 109.8 467.593 109.8C466.26 115.267 463.46 120.4 459.193 125.2C455.06 130 450.126 134.267 444.393 138C438.793 141.6 433.06 144.4 427.193 146.4C421.326 148.533 416.06 149.6 411.393 149.6ZM462.793 105.8C463.593 103.533 463.993 101.4 463.993 99.4C463.993 96.6 462.86 94.2667 460.593 92.4C458.46 90.4 454.593 89.4 448.993 89.4C443.66 89.4 438.926 90.2 434.793 91.8C430.66 93.4 428.593 95.1333 428.593 97C428.593 98.6 430.126 99.8667 433.193 100.8C437.726 102.267 442.526 103.4 447.593 104.2C452.793 105 457.86 105.533 462.793 105.8ZM411.193 146C411.86 146 412.526 146 413.193 146C413.86 145.867 414.593 145.733 415.393 145.6C418.06 145.067 421.326 143.867 425.193 142C429.193 140 433.326 137.467 437.593 134.4C441.993 131.333 446.06 128.067 449.793 124.6C451.793 122.733 453.793 120.467 455.793 117.8C457.926 115.133 459.66 112.4 460.993 109.6C455.66 109.6 450.66 109.4 445.993 109C441.326 108.6 437.126 107.933 433.393 107C433.26 107.133 432.993 107.067 432.593 106.8C432.326 106.8 432.126 106.733 431.993 106.6C430.26 106.6 427.86 107.8 424.793 110.2C421.726 112.6 418.593 115.667 415.393 119.4C412.326 123 409.66 126.733 407.393 130.6C405.26 134.333 404.193 137.6 404.193 140.4C404.193 144.133 406.526 146 411.193 146ZM488.832 152.2C487.365 152.2 486.632 151.4 486.632 149.8C486.632 147.933 487.565 145.267 489.432 141.8C491.299 138.333 493.432 134.8 495.832 131.2C498.232 127.6 500.232 124.667 501.832 122.4C502.899 120.933 504.365 118.933 506.232 116.4C508.099 113.867 510.032 111.133 512.032 108.2C514.032 105.133 515.699 102.133 517.032 99.2C518.499 96.2667 519.232 93.6667 519.232 91.4C519.232 89.1333 518.499 87.4667 517.032 86.4C515.699 85.3333 515.032 84.2 515.032 83C515.032 82.4667 515.299 82.2 515.832 82.2C516.499 82.2 517.299 82.5333 518.232 83.2C519.165 83.7333 520.165 84.4667 521.232 85.4C522.299 86.3333 523.299 87.4 524.232 88.6C525.032 89.5333 525.832 90.6 526.632 91.8C527.432 93 527.832 94.4 527.832 96C527.832 98 527.099 100.2 525.632 102.6C523.232 106.733 520.432 110.533 517.232 114C514.032 117.467 510.765 121.133 507.432 125C503.832 129.133 500.565 133 497.632 136.6C494.832 140.067 493.099 142.267 492.432 143.2C494.032 141.333 496.632 138.667 500.232 135.2C503.965 131.6 508.165 127.667 512.832 123.4C517.499 119.133 522.165 115.067 526.832 111.2C531.632 107.333 535.832 104.2 539.432 101.8C540.899 100.867 542.765 100 545.032 99.2C547.299 98.2667 549.499 97.8 551.632 97.8C553.499 97.8 555.032 98.4 556.232 99.6C557.565 100.667 558.232 102.667 558.232 105.6C558.232 108.133 557.699 111.067 556.632 114.4C555.699 117.733 554.632 120.8 553.432 123.6C552.499 125.733 551.765 127.867 551.232 130C550.699 132 550.432 133.867 550.432 135.6C550.432 138.133 551.099 140.133 552.432 141.6C553.899 143.067 556.099 143.8 559.032 143.8C561.965 143.8 565.699 143 570.232 141.4C577.299 138.733 584.365 135.067 591.432 130.4C598.499 125.733 604.899 121 610.632 116.2C612.099 115 613.432 114 614.632 113.2C615.832 112.4 617.099 111.333 618.432 110C618.699 109.867 618.965 109.8 619.232 109.8C619.632 109.8 619.832 110 619.832 110.4C619.832 110.8 619.632 111.333 619.232 112C618.432 113.067 616.499 115.067 613.432 118C610.365 120.8 606.565 124 602.032 127.6C597.499 131.067 592.565 134.467 587.232 137.8C582.032 141 576.765 143.533 571.432 145.4C569.032 146.067 566.499 146.6 563.832 147C561.299 147.533 558.832 147.8 556.432 147.8C552.432 147.8 548.965 146.933 546.032 145.2C543.099 143.467 541.632 140.467 541.632 136.2C541.632 133.533 542.299 130.4 543.632 126.8C544.565 124.267 545.565 121.733 546.632 119.2C547.832 116.533 548.632 113.867 549.032 111.2C549.165 110.667 549.232 110.2 549.232 109.8C549.232 109.267 549.232 108.8 549.232 108.4C549.232 105.2 548.099 103.6 545.832 103.6C544.365 103.6 542.565 104.2 540.432 105.4C538.432 106.467 536.632 107.533 535.032 108.6C533.565 109.533 531.165 111.467 527.832 114.4C524.632 117.2 521.165 120.333 517.432 123.8C513.699 127.267 510.165 130.6 506.832 133.8C504.032 136.467 501.365 139.267 498.832 142.2C496.299 145 494.165 147.333 492.432 149.2C490.699 151.2 489.499 152.2 488.832 152.2ZM666.195 152C660.595 152 655.795 150.533 651.795 147.6C647.928 144.667 645.995 139.4 645.995 131.8C645.995 124.333 648.195 116.533 652.595 108.4C656.995 100.267 663.128 92.2 670.995 84.2C678.995 76.2 688.261 68.6667 698.795 61.6C709.461 54.4 720.928 48.0667 733.195 42.6C745.595 37.1333 758.461 32.8 771.795 29.6C785.128 26.4 798.461 24.8 811.795 24.8C824.061 24.8 833.595 26.5333 840.395 30C847.195 33.4667 850.595 38.4 850.595 44.8C850.595 47.3333 850.128 49.8 849.195 52.2C847.328 57.2667 843.728 63.1333 838.395 69.8C833.195 76.4667 827.795 83.1333 822.195 89.8C820.995 91.2667 819.195 93.5333 816.795 96.6C814.528 99.5333 811.995 102.933 809.195 106.8C806.528 110.667 803.928 114.6 801.395 118.6C798.861 122.6 796.795 126.4 795.195 130C793.595 133.467 792.795 136.4 792.795 138.8C792.795 142 794.528 143.6 797.995 143.6C802.128 143.6 807.195 141.867 813.195 138.4C819.195 134.8 825.595 130.2 832.395 124.6C839.328 118.867 846.061 112.667 852.595 106C859.261 99.2 865.261 92.5333 870.595 86C875.928 79.4667 879.995 73.7333 882.795 68.8C885.595 63.8667 887.928 59.9333 889.795 57C891.661 53.9333 894.261 52.4 897.595 52.4C898.528 52.4 899.795 52.7333 901.395 53.4C902.995 53.9333 904.395 54.6 905.595 55.4C906.928 56.2 907.395 57.0667 906.995 58C906.461 59.2 905.395 60.9333 903.795 63.2C902.195 65.3333 900.595 67.2667 898.995 69C897.528 70.7333 896.461 71.7333 895.795 72C893.261 75.6 890.595 80.4667 887.795 86.6C885.128 92.6 882.661 98.8667 880.395 105.4C879.728 107.267 878.795 110.067 877.595 113.8C876.528 117.4 875.528 121.267 874.595 125.4C873.795 129.533 873.395 133.333 873.395 136.8C873.395 139.733 873.861 142.133 874.795 144C875.728 145.867 877.328 146.8 879.595 146.8C881.061 146.8 882.728 146.4 884.595 145.6C886.461 144.8 888.661 143.533 891.195 141.8C895.061 139.267 900.061 135.067 906.195 129.2C912.461 123.333 918.995 116.933 925.795 110C936.195 99.6 946.795 88.4 957.595 76.4C968.395 64.2667 979.261 53.0667 990.195 42.8C999.528 34 1008.99 26.3333 1018.59 19.8C1028.33 13.2667 1038.66 8.6 1049.59 5.79999C1051.73 5.39999 1053.79 5.06666 1055.79 4.79999C1057.93 4.53333 1060.06 4.4 1062.19 4.4C1064.59 4.4 1066.99 4.6 1069.39 4.99999C1074.19 6.06666 1077.79 8.33333 1080.19 11.8C1082.59 15.1333 1083.79 19.1333 1083.79 23.8C1083.79 30.0667 1081.66 36.8667 1077.39 44.2C1073.13 51.5333 1066.79 58.0667 1058.39 63.8C1057.73 64.3333 1057.13 64.6 1056.59 64.6C1056.19 64.6 1055.99 64.4 1055.99 64C1055.99 63.7333 1056.26 63.2667 1056.79 62.6C1057.33 61.8 1058.26 61 1059.59 60.2C1063.33 57.6667 1066.66 54.4667 1069.59 50.6C1072.53 46.7333 1074.86 42.6667 1076.59 38.4C1078.33 34.1333 1079.19 30.2 1079.19 26.6C1079.19 23.5333 1078.53 20.8667 1077.19 18.6C1075.86 16.3333 1073.66 14.7333 1070.59 13.8C1068.99 13.5333 1067.39 13.3333 1065.79 13.2C1064.33 13.0667 1062.86 13 1061.39 13C1058.06 13 1054.73 13.4667 1051.39 14.4C1042.46 16.5333 1033.13 20.3333 1023.39 25.8C1013.79 31.2667 1004.53 37.7333 995.595 45.2C987.461 52 979.595 59.3333 971.995 67.2C964.395 75.0667 957.061 83 949.995 91C942.928 99 936.128 106.667 929.595 114C923.461 120.933 917.261 127.4 910.995 133.4C904.861 139.267 898.861 144 892.995 147.6C888.861 150.267 884.528 151.6 879.995 151.6C875.861 151.6 872.328 150.133 869.395 147.2C866.461 144.4 864.995 139.867 864.995 133.6C864.995 130 865.528 125.333 866.595 119.6C867.795 113.733 869.261 107.733 870.995 101.6C872.861 95.3333 874.795 89.8 876.795 85C875.195 87 872.661 89.9333 869.195 93.8C865.861 97.5333 861.928 101.8 857.395 106.6C852.861 111.4 847.928 116.267 842.595 121.2C837.261 126 831.728 130.467 825.995 134.6C820.395 138.733 814.795 142.067 809.195 144.6C803.728 147.133 798.461 148.4 793.395 148.4C789.661 148.4 786.928 147.667 785.195 146.2C783.595 144.733 782.795 142.8 782.795 140.4C782.795 137.467 783.661 134.067 785.395 130.2C787.261 126.333 789.595 122.267 792.395 118C795.328 113.6 798.395 109.333 801.595 105.2C804.795 101.067 807.795 97.2667 810.595 93.8C813.395 90.3333 815.595 87.5333 817.195 85.4C820.795 80.6 824.195 75.8 827.395 71C830.595 66.0667 833.195 61.2667 835.195 56.6C837.195 51.9333 838.195 47.7333 838.195 44C838.195 39.2 836.195 35.3333 832.195 32.4C828.195 29.4667 821.261 28 811.395 28C798.995 28 786.528 29.5333 773.995 32.6C761.461 35.6667 749.328 39.9333 737.595 45.4C725.995 50.7333 715.195 56.9333 705.195 64C695.195 70.9333 686.461 78.3333 678.995 86.2C671.528 93.9333 665.661 101.8 661.395 109.8C657.261 117.8 655.195 125.467 655.195 132.8C655.195 139.067 656.395 143.333 658.795 145.6C661.328 147.733 664.261 148.8 667.595 148.8C669.595 148.8 671.661 148.533 673.795 148C675.928 147.6 677.995 147.133 679.995 146.6C680.261 146.467 680.728 146.4 681.395 146.4C682.995 146.4 683.795 146.8 683.795 147.6C683.795 148.133 683.328 148.6 682.395 149C679.861 149.933 677.195 150.667 674.395 151.2C671.595 151.733 668.861 152 666.195 152ZM1011.66 78.4C1009.26 78.4 1008.06 77.0667 1008.06 74.4C1008.06 73.3333 1008.32 72.2667 1008.86 71.2C1009.26 70.1333 1010.59 69.2667 1012.86 68.6C1015.12 67.8 1017.52 67.2667 1020.06 67C1022.72 66.6 1024.79 66.4 1026.26 66.4C1027.46 66.4 1028.06 66.4667 1028.06 66.6C1028.06 66.8667 1027.39 67.2667 1026.06 67.8C1024.72 68.3333 1023.32 69 1021.86 69.8C1020.39 70.6 1019.39 71.5333 1018.86 72.6C1018.19 74.3333 1017.12 75.7333 1015.66 76.8C1014.32 77.8667 1012.99 78.4 1011.66 78.4ZM977.655 147.6C973.922 147.6 970.655 146.933 967.855 145.6C965.055 144.133 963.655 141.533 963.655 137.8C963.655 133.8 964.655 129.867 966.655 126C968.655 122.133 971.055 118.6 973.855 115.4C976.655 112.067 979.389 109.2 982.055 106.8C984.855 104.267 986.922 102.4 988.255 101.2C987.055 100.933 987.255 99.7333 988.855 97.6C990.455 95.4667 992.789 93.7333 995.855 92.4C996.655 92.1333 997.389 92 998.055 92C999.522 92 1000.99 92.3333 1002.46 93C1004.06 93.6667 1004.86 94.6 1004.86 95.8C1004.86 96.4667 1004.59 97.1333 1004.06 97.8C1003.52 98.4667 1002.99 99 1002.46 99.4C1001.39 100.2 999.722 101.6 997.455 103.6C995.189 105.6 992.722 107.867 990.055 110.4C987.389 112.933 984.855 115.467 982.455 118C980.189 120.4 978.389 122.4 977.055 124C972.122 130.267 969.655 135.133 969.655 138.6C969.655 142.333 972.655 144.2 978.655 144.2C983.589 144.2 988.389 143.467 993.055 142C997.855 140.4 1002.32 138.533 1006.46 136.4C1012.99 133.067 1019.06 129.067 1024.66 124.4C1030.26 119.6 1036.06 114.8 1042.06 110C1042.32 109.867 1042.66 109.8 1043.06 109.8C1043.46 109.8 1043.66 110 1043.66 110.4C1043.66 110.8 1043.39 111.333 1042.86 112C1042.06 113.067 1040.39 114.867 1037.86 117.4C1035.32 119.8 1032.12 122.533 1028.26 125.6C1024.52 128.667 1020.32 131.733 1015.66 134.8C1011.12 137.733 1006.46 140.267 1001.66 142.4C999.122 143.467 995.522 144.6 990.855 145.8C986.322 147 981.922 147.6 977.655 147.6ZM1062.56 149.6C1057.23 149.6 1052.76 148.733 1049.16 147C1045.03 145 1042.3 142.067 1040.96 138.2C1039.63 134.333 1038.96 130.533 1038.96 126.8C1038.96 124.8 1039.1 122.933 1039.36 121.2C1039.63 119.333 1039.83 117.733 1039.96 116.4C1039.43 116.667 1038.76 116.8 1037.96 116.8C1037.3 116.8 1036.7 116.667 1036.16 116.4C1035.76 116.133 1035.96 115.733 1036.76 115.2C1037.3 114.8 1038.03 114.2 1038.96 113.4C1039.9 112.6 1040.63 111.933 1041.16 111.4C1042.23 107.8 1043.83 103.2 1045.96 97.6C1048.1 91.8667 1051.16 85.6667 1055.16 79C1058.1 74.0667 1061.83 68.2 1066.36 61.4C1070.9 54.6 1075.96 47.6667 1081.56 40.6C1087.16 33.5333 1093.1 27 1099.36 21C1105.76 14.8667 1112.23 9.93333 1118.76 6.19999C1125.43 2.46665 1132.03 0.599988 1138.56 0.599988C1141.63 0.599988 1143.9 1.46666 1145.36 3.19999C1146.96 4.93333 1147.76 7.33333 1147.76 10.4C1147.76 14.8 1146.1 20.4667 1142.76 27.4C1139.3 34.6 1134.9 41.4667 1129.56 48C1124.36 54.4 1118.96 60.2 1113.36 65.4C1107.9 70.6 1102.96 75.1333 1098.56 79C1091.5 85.1333 1084.63 90.4667 1077.96 95C1071.43 99.4 1065.63 103.067 1060.56 106C1055.5 108.933 1051.63 111.2 1048.96 112.8C1048.43 114.667 1047.96 116.8 1047.56 119.2C1047.16 121.467 1046.96 123.733 1046.96 126C1046.96 131.067 1048.16 135.667 1050.56 139.8C1052.96 143.933 1057.3 146 1063.56 146C1067.83 146 1072.3 145.133 1076.96 143.4C1081.76 141.667 1086.1 139.867 1089.96 138C1095.7 135.067 1101.23 131.933 1106.56 128.6C1111.9 125.133 1116.56 121.867 1120.56 118.8C1124.7 115.733 1127.7 113.333 1129.56 111.6C1130.1 111.067 1130.5 110.8 1130.76 110.8C1130.9 110.8 1130.96 110.933 1130.96 111.2C1130.96 112.4 1130.43 113.533 1129.36 114.6C1123.76 120.2 1117.63 125.533 1110.96 130.6C1104.43 135.533 1097.5 139.733 1090.16 143.2C1085.63 145.2 1080.96 146.733 1076.16 147.8C1071.5 149 1066.96 149.6 1062.56 149.6ZM1050.76 107.4C1051.83 106.867 1053.9 105.667 1056.96 103.8C1060.16 101.8 1063.96 99.3333 1068.36 96.4C1072.9 93.4667 1077.56 90.2 1082.36 86.6C1087.3 83 1091.96 79.2667 1096.36 75.4C1098.9 73.1333 1102.03 70.2 1105.76 66.6C1109.5 63 1113.36 59 1117.36 54.6C1121.36 50.0667 1125.1 45.4 1128.56 40.6C1132.16 35.6667 1135.03 30.8 1137.16 26C1139.43 21.0667 1140.56 16.4667 1140.56 12.2C1140.56 8.06666 1138.9 5.99999 1135.56 5.99999C1132.9 5.99999 1129.5 7.19999 1125.36 9.59999C1121.23 12 1116.83 15.2 1112.16 19.2C1107.63 23.0667 1103.16 27.2667 1098.76 31.8C1093.43 37.4 1088.3 43.6 1083.36 50.4C1078.43 57.0667 1073.83 63.8667 1069.56 70.8C1065.3 77.7333 1061.56 84.4 1058.36 90.8C1055.16 97.0667 1052.63 102.6 1050.76 107.4ZM1152.21 149.6C1146.88 149.6 1142.41 148.733 1138.81 147C1134.68 145 1131.95 142.067 1130.61 138.2C1129.28 134.333 1128.61 130.533 1128.61 126.8C1128.61 124.8 1128.75 122.933 1129.01 121.2C1129.28 119.333 1129.48 117.733 1129.61 116.4C1129.08 116.667 1128.41 116.8 1127.61 116.8C1126.95 116.8 1126.35 116.667 1125.81 116.4C1125.41 116.133 1125.61 115.733 1126.41 115.2C1126.95 114.8 1127.68 114.2 1128.61 113.4C1129.55 112.6 1130.28 111.933 1130.81 111.4C1131.88 107.8 1133.48 103.2 1135.61 97.6C1137.75 91.8667 1140.81 85.6667 1144.81 79C1147.75 74.0667 1151.48 68.2 1156.01 61.4C1160.55 54.6 1165.61 47.6667 1171.21 40.6C1176.81 33.5333 1182.75 27 1189.01 21C1195.41 14.8667 1201.88 9.93333 1208.41 6.19999C1215.08 2.46665 1221.68 0.599988 1228.21 0.599988C1231.28 0.599988 1233.55 1.46666 1235.01 3.19999C1236.61 4.93333 1237.41 7.33333 1237.41 10.4C1237.41 14.8 1235.75 20.4667 1232.41 27.4C1228.95 34.6 1224.55 41.4667 1219.21 48C1214.01 54.4 1208.61 60.2 1203.01 65.4C1197.55 70.6 1192.61 75.1333 1188.21 79C1181.15 85.1333 1174.28 90.4667 1167.61 95C1161.08 99.4 1155.28 103.067 1150.21 106C1145.15 108.933 1141.28 111.2 1138.61 112.8C1138.08 114.667 1137.61 116.8 1137.21 119.2C1136.81 121.467 1136.61 123.733 1136.61 126C1136.61 131.067 1137.81 135.667 1140.21 139.8C1142.61 143.933 1146.95 146 1153.21 146C1157.48 146 1161.95 145.133 1166.61 143.4C1171.41 141.667 1175.75 139.867 1179.61 138C1185.35 135.067 1190.88 131.933 1196.21 128.6C1201.55 125.133 1206.21 121.867 1210.21 118.8C1214.35 115.733 1217.35 113.333 1219.21 111.6C1219.75 111.067 1220.15 110.8 1220.41 110.8C1220.55 110.8 1220.61 110.933 1220.61 111.2C1220.61 112.4 1220.08 113.533 1219.01 114.6C1213.41 120.2 1207.28 125.533 1200.61 130.6C1194.08 135.533 1187.15 139.733 1179.81 143.2C1175.28 145.2 1170.61 146.733 1165.81 147.8C1161.15 149 1156.61 149.6 1152.21 149.6ZM1140.41 107.4C1141.48 106.867 1143.55 105.667 1146.61 103.8C1149.81 101.8 1153.61 99.3333 1158.01 96.4C1162.55 93.4667 1167.21 90.2 1172.01 86.6C1176.95 83 1181.61 79.2667 1186.01 75.4C1188.55 73.1333 1191.68 70.2 1195.41 66.6C1199.15 63 1203.01 59 1207.01 54.6C1211.01 50.0667 1214.75 45.4 1218.21 40.6C1221.81 35.6667 1224.68 30.8 1226.81 26C1229.08 21.0667 1230.21 16.4667 1230.21 12.2C1230.21 8.06666 1228.55 5.99999 1225.21 5.99999C1222.55 5.99999 1219.15 7.19999 1215.01 9.59999C1210.88 12 1206.48 15.2 1201.81 19.2C1197.28 23.0667 1192.81 27.2667 1188.41 31.8C1183.08 37.4 1177.95 43.6 1173.01 50.4C1168.08 57.0667 1163.48 63.8667 1159.21 70.8C1154.95 77.7333 1151.21 84.4 1148.01 90.8C1144.81 97.0667 1142.28 102.6 1140.41 107.4ZM1253.06 78.4C1250.66 78.4 1249.46 77.0667 1249.46 74.4C1249.46 73.3333 1249.73 72.2667 1250.26 71.2C1250.66 70.1333 1252 69.2667 1254.26 68.6C1256.53 67.8 1258.93 67.2667 1261.46 67C1264.13 66.6 1266.2 66.4 1267.66 66.4C1268.86 66.4 1269.46 66.4667 1269.46 66.6C1269.46 66.8667 1268.8 67.2667 1267.46 67.8C1266.13 68.3333 1264.73 69 1263.26 69.8C1261.8 70.6 1260.8 71.5333 1260.26 72.6C1259.6 74.3333 1258.53 75.7333 1257.06 76.8C1255.73 77.8667 1254.4 78.4 1253.06 78.4ZM1219.06 147.6C1215.33 147.6 1212.06 146.933 1209.26 145.6C1206.46 144.133 1205.06 141.533 1205.06 137.8C1205.06 133.8 1206.06 129.867 1208.06 126C1210.06 122.133 1212.46 118.6 1215.26 115.4C1218.06 112.067 1220.8 109.2 1223.46 106.8C1226.26 104.267 1228.33 102.4 1229.66 101.2C1228.46 100.933 1228.66 99.7333 1230.26 97.6C1231.86 95.4667 1234.2 93.7333 1237.26 92.4C1238.06 92.1333 1238.8 92 1239.46 92C1240.93 92 1242.4 92.3333 1243.86 93C1245.46 93.6667 1246.26 94.6 1246.26 95.8C1246.26 96.4667 1246 97.1333 1245.46 97.8C1244.93 98.4667 1244.4 99 1243.86 99.4C1242.8 100.2 1241.13 101.6 1238.86 103.6C1236.6 105.6 1234.13 107.867 1231.46 110.4C1228.8 112.933 1226.26 115.467 1223.86 118C1221.6 120.4 1219.8 122.4 1218.46 124C1213.53 130.267 1211.06 135.133 1211.06 138.6C1211.06 142.333 1214.06 144.2 1220.06 144.2C1225 144.2 1229.8 143.467 1234.46 142C1239.26 140.4 1243.73 138.533 1247.86 136.4C1254.4 133.067 1260.46 129.067 1266.06 124.4C1271.66 119.6 1277.46 114.8 1283.46 110C1283.73 109.867 1284.06 109.8 1284.46 109.8C1284.86 109.8 1285.06 110 1285.06 110.4C1285.06 110.8 1284.8 111.333 1284.26 112C1283.46 113.067 1281.8 114.867 1279.26 117.4C1276.73 119.8 1273.53 122.533 1269.66 125.6C1265.93 128.667 1261.73 131.733 1257.06 134.8C1252.53 137.733 1247.86 140.267 1243.06 142.4C1240.53 143.467 1236.93 144.6 1232.26 145.8C1227.73 147 1223.33 147.6 1219.06 147.6ZM1334.17 148.2C1330.17 148.2 1326.64 147.2 1323.57 145.2C1320.64 143.2 1319.17 139.467 1319.17 134C1319.3 131.2 1319.77 128.333 1320.57 125.4C1321.5 122.333 1322.5 119.467 1323.57 116.8C1321.84 118.8 1319.24 121.467 1315.77 124.8C1312.3 128.133 1308.37 131.533 1303.97 135C1299.7 138.333 1295.3 141.2 1290.77 143.6C1286.24 146 1281.97 147.2 1277.97 147.2C1273.97 147.2 1270.7 145.733 1268.17 142.8C1266.44 140.933 1265.57 138.467 1265.57 135.4C1265.57 131.533 1266.9 127.267 1269.57 122.6C1272.37 117.8 1276.1 113.067 1280.77 108.4C1285.44 103.6 1290.77 99.2 1296.77 95.2C1302.9 91.2 1309.3 88.0667 1315.97 85.8C1323.17 83.2667 1329.44 82 1334.77 82C1343.84 82 1348.37 85.8667 1348.37 93.6C1348.37 94.2667 1348.3 95 1348.17 95.8C1348.17 96.4667 1348.1 97.2 1347.97 98C1347.7 99.6 1347.17 100.867 1346.37 101.8C1345.7 102.733 1345.17 103.2 1344.77 103.2C1344.1 103.2 1343.97 102.467 1344.37 101C1344.64 100.333 1344.77 99.6667 1344.77 99C1344.77 98.2 1344.77 97.5333 1344.77 97C1344.77 94.8667 1344.24 93.2 1343.17 92C1342.1 90.6667 1340.24 90 1337.57 90C1335.17 90 1332.17 90.5333 1328.57 91.6C1325.1 92.5333 1321.37 93.8 1317.37 95.4C1313.37 96.8667 1309.5 98.5333 1305.77 100.4C1302.17 102.267 1299.17 104.133 1296.77 106C1292.64 108.933 1288.77 112.2 1285.17 115.8C1281.57 119.4 1278.57 122.933 1276.17 126.4C1273.77 129.733 1272.37 132.8 1271.97 135.6C1271.84 136 1271.77 136.4 1271.77 136.8C1271.77 137.2 1271.77 137.533 1271.77 137.8C1271.77 140.2 1272.24 141.867 1273.17 142.8C1274.24 143.733 1275.57 144.2 1277.17 144.2C1279.57 144.2 1282.3 143.467 1285.37 142C1288.57 140.533 1291.5 138.867 1294.17 137C1296.84 135.133 1298.7 133.733 1299.77 132.8C1304.04 129.2 1308.84 125.267 1314.17 121C1319.5 116.6 1324.24 112.533 1328.37 108.8C1329.04 108.4 1329.77 108.2 1330.57 108.2C1332.44 108.2 1333.97 108.667 1335.17 109.6C1335.57 110 1335.77 110.533 1335.77 111.2C1335.77 111.867 1335.57 112.733 1335.17 113.8C1334.9 114.733 1334.5 115.8 1333.97 117C1331.7 121.667 1329.84 125.867 1328.37 129.6C1326.9 133.333 1326.17 136.467 1326.17 139C1326.17 143 1328.37 145 1332.77 145C1336.1 145 1341.04 143.8 1347.57 141.4C1354.64 138.733 1361.7 135.067 1368.77 130.4C1375.84 125.733 1382.24 121 1387.97 116.2C1389.44 115 1390.77 114 1391.97 113.2C1393.17 112.4 1394.44 111.333 1395.77 110C1396.04 109.867 1396.37 109.8 1396.77 109.8C1397.17 109.8 1397.37 110 1397.37 110.4C1397.37 110.8 1397.1 111.333 1396.57 112C1395.77 113.067 1393.84 115.067 1390.77 118C1387.7 120.8 1383.9 124 1379.37 127.6C1374.84 131.067 1369.9 134.467 1364.57 137.8C1359.37 141 1354.1 143.533 1348.77 145.4C1346.77 146.067 1344.44 146.667 1341.77 147.2C1339.24 147.867 1336.7 148.2 1334.17 148.2ZM1377.7 152.2C1376.23 152.2 1375.5 151.4 1375.5 149.8C1375.5 147.933 1376.43 145.267 1378.3 141.8C1380.17 138.333 1382.3 134.8 1384.7 131.2C1387.1 127.6 1389.1 124.667 1390.7 122.4C1391.77 120.933 1393.23 118.933 1395.1 116.4C1396.97 113.867 1398.9 111.133 1400.9 108.2C1402.9 105.133 1404.57 102.133 1405.9 99.2C1407.37 96.2667 1408.1 93.6667 1408.1 91.4C1408.1 89.1333 1407.37 87.4667 1405.9 86.4C1404.57 85.3333 1403.9 84.2 1403.9 83C1403.9 82.4667 1404.17 82.2 1404.7 82.2C1405.37 82.2 1406.17 82.5333 1407.1 83.2C1408.03 83.7333 1409.03 84.4667 1410.1 85.4C1411.17 86.3333 1412.17 87.4 1413.1 88.6C1413.9 89.5333 1414.7 90.6 1415.5 91.8C1416.3 93 1416.7 94.4 1416.7 96C1416.7 98 1415.97 100.2 1414.5 102.6C1412.1 106.733 1409.3 110.533 1406.1 114C1402.9 117.467 1399.63 121.133 1396.3 125C1392.7 129.133 1389.43 133 1386.5 136.6C1383.7 140.067 1381.97 142.267 1381.3 143.2C1382.77 141.467 1385.17 138.867 1388.5 135.4C1391.97 131.933 1395.83 128.133 1400.1 124C1404.5 119.867 1408.9 115.933 1413.3 112.2C1417.83 108.333 1422.03 105.133 1425.9 102.6C1429.77 99.9333 1432.83 98.5333 1435.1 98.4C1439.1 98 1441.83 98.3333 1443.3 99.4C1444.9 100.333 1445.77 101.6 1445.9 103.2C1446.17 104.8 1446.3 106.4 1446.3 108C1446.3 109.733 1445.9 112 1445.1 114.8C1444.3 117.467 1443.3 120.267 1442.1 123.2C1441.03 126 1439.97 128.533 1438.9 130.8C1437.97 133.067 1437.3 134.733 1436.9 135.8C1438.1 134.867 1439.77 133 1441.9 130.2C1444.03 127.4 1446.3 124.467 1448.7 121.4C1451.23 118.2 1453.5 115.733 1455.5 114C1456.97 112.667 1458.17 111.8 1459.1 111.4C1460.17 110.867 1460.97 110.6 1461.5 110.6C1462.57 110.6 1463.3 111.133 1463.7 112.2C1464.1 113.133 1464.37 114.067 1464.5 115C1464.9 116.6 1465.37 118.867 1465.9 121.8C1466.43 124.6 1467.3 127.6 1468.5 130.8C1469.83 133.867 1471.77 136.533 1474.3 138.8C1475.37 139.733 1476.57 140.4 1477.9 140.8C1479.23 141.067 1480.7 141.2 1482.3 141.2C1484.97 141.2 1487.83 140.8 1490.9 140C1493.97 139.067 1496.63 138.067 1498.9 137C1504.5 134.2 1509.9 130.867 1515.1 127C1520.43 123.133 1525.9 118.933 1531.5 114.4L1544.1 104C1545.17 103.2 1545.83 102.8 1546.1 102.8C1546.77 102.8 1546.03 104.333 1543.9 107.4C1541.9 110.333 1538.63 113.733 1534.1 117.6C1530.9 120.133 1527.17 123.067 1522.9 126.4C1518.63 129.733 1514.1 132.933 1509.3 136C1504.63 138.933 1499.9 141.4 1495.1 143.4C1492.57 144.333 1490.1 145.133 1487.7 145.8C1485.43 146.467 1483.17 146.8 1480.9 146.8C1475.97 146.8 1471.97 145.733 1468.9 143.6C1465.97 141.333 1463.7 138.6 1462.1 135.4C1460.63 132.067 1459.5 128.867 1458.7 125.8C1458.03 122.6 1457.37 120.067 1456.7 118.2C1454.43 120.2 1452.1 122.733 1449.7 125.8C1447.43 128.733 1445.3 131.6 1443.3 134.4C1441.43 137.2 1439.97 139.267 1438.9 140.6C1437.57 142.333 1436.03 143.2 1434.3 143.2C1432.97 143.2 1431.9 142.667 1431.1 141.6C1430.43 140.533 1430.23 139 1430.5 137C1430.77 135.267 1431.43 132.8 1432.5 129.6C1433.7 126.4 1434.9 123.133 1436.1 119.8C1437.3 116.333 1438.03 113.467 1438.3 111.2C1438.43 110.667 1438.5 110.2 1438.5 109.8C1438.5 109.267 1438.5 108.867 1438.5 108.6C1438.5 106.733 1438.17 105.467 1437.5 104.8C1436.83 104 1435.97 103.6 1434.9 103.6C1433.3 103.6 1431.43 104.2 1429.3 105.4C1427.3 106.467 1425.5 107.533 1423.9 108.6C1422.43 109.533 1420.03 111.467 1416.7 114.4C1413.5 117.2 1410.03 120.333 1406.3 123.8C1402.57 127.267 1399.03 130.6 1395.7 133.8C1392.9 136.467 1390.23 139.267 1387.7 142.2C1385.17 145 1383.03 147.333 1381.3 149.2C1379.57 151.2 1378.37 152.2 1377.7 152.2ZM1525.81 154.4C1525.01 154.4 1524.21 154.333 1523.41 154.2C1522.61 154.2 1521.88 154.133 1521.21 154C1519.61 153.733 1518.21 153.2 1517.01 152.4C1515.94 151.6 1515.41 150.467 1515.41 149C1515.41 148.2 1515.48 147.6 1515.61 147.2C1516.54 144.533 1518.68 141.667 1522.01 138.6C1525.34 135.4 1529.34 132.4 1534.01 129.6C1538.68 126.667 1543.21 124.333 1547.61 122.6C1544.28 119.267 1541.68 116.133 1539.81 113.2C1537.94 110.133 1537.01 107.133 1537.01 104.2C1537.01 100.333 1538.81 96.6 1542.41 93C1546.14 89.4 1552.08 85.7333 1560.21 82C1564.08 80.2667 1567.54 79.0667 1570.61 78.4C1573.81 77.7333 1576.61 77.4 1579.01 77.4C1582.08 77.4 1584.54 77.8 1586.41 78.6C1588.28 79.4 1589.61 80.2667 1590.41 81.2C1592.41 83.6 1593.41 85.9333 1593.41 88.2C1593.41 90.8667 1592.34 93.2 1590.21 95.2C1588.08 97.2 1585.74 98.9333 1583.21 100.4C1580.81 101.867 1579.01 103.133 1577.81 104.2C1577.28 104.733 1576.68 105 1576.01 105C1575.48 105 1575.08 104.8 1574.81 104.4C1574.68 104 1574.88 103.667 1575.41 103.4C1576.88 102.6 1578.61 101.2 1580.61 99.2C1582.74 97.0667 1584.61 94.7333 1586.21 92.2C1587.81 89.6667 1588.61 87.5333 1588.61 85.8C1588.61 84.8667 1588.34 84.1333 1587.81 83.6C1586.74 82.5333 1584.88 82 1582.21 82C1579.28 82 1575.74 82.7333 1571.61 84.2C1567.48 85.5333 1563.48 87.3333 1559.61 89.6C1555.74 91.8667 1552.48 94.4667 1549.81 97.4C1547.28 100.2 1546.01 103 1546.01 105.8C1546.01 108.467 1546.94 110.933 1548.81 113.2C1550.68 115.467 1552.54 117.6 1554.41 119.6C1558.14 117.867 1562.61 116.467 1567.81 115.4C1573.01 114.2 1578.48 113.267 1584.21 112.6C1589.94 111.933 1595.41 111.467 1600.61 111.2C1605.94 110.8 1610.61 110.6 1614.61 110.6C1616.88 110.6 1618.81 110.6 1620.41 110.6C1622.01 110.6 1623.28 110.733 1624.21 111C1624.88 111.267 1625.21 111.533 1625.21 111.8C1625.21 112.467 1624.81 112.8 1624.01 112.8C1623.08 112.8 1622.08 112.733 1621.01 112.6C1620.08 112.467 1618.88 112.4 1617.41 112.4C1613.01 112.4 1607.74 112.733 1601.61 113.4C1595.48 113.933 1589.28 114.733 1583.01 115.8C1576.74 116.733 1571.21 117.8 1566.41 119C1561.74 120.2 1558.61 121.4 1557.01 122.6C1559.68 125.667 1561.01 129.067 1561.01 132.8C1561.01 135.467 1560.28 138.067 1558.81 140.6C1557.48 143.133 1555.34 145.2 1552.41 146.8C1548.41 149.333 1543.94 151.2 1539.01 152.4C1534.08 153.733 1529.68 154.4 1525.81 154.4ZM1525.81 150C1527.54 150 1530.34 149.4 1534.21 148.2C1538.21 147 1541.88 145.333 1545.21 143.2C1550.14 140.133 1552.61 136.533 1552.61 132.4C1552.61 129.467 1551.28 126.6 1548.61 123.8C1546.48 124.467 1543.88 125.8 1540.81 127.8C1537.88 129.8 1534.94 132.067 1532.01 134.6C1529.21 137.133 1526.81 139.6 1524.81 142C1522.94 144.267 1522.01 146.133 1522.01 147.6C1522.01 149.2 1523.28 150 1525.81 150Z" fill="black"/>
</svg>
